<svg xmlns="http://www.w3.org/2000/svg" xmlns:xlink="http://www.w3.org/1999/xlink" width="81" height="96"><defs><linearGradient id="c" x1="0%" x2="106%" y1="-18.1%" y2="109.7%"><stop offset="0%" stop-color="#01A1D2"/><stop offset="100%" stop-color="#03BBF3"/></linearGradient><filter id="a" width="133.7%" height="133.7%" x="-16.9%" y="-13.5%" filterUnits="objectBoundingBox"><feOffset dy="2" in="SourceAlpha" result="shadowOffsetOuter1"/><feGaussianBlur in="shadowOffsetOuter1" result="shadowBlurOuter1" stdDeviation="3"/><feColorMatrix in="shadowBlurOuter1" values="0 0 0 0 0.00392156863 0 0 0 0 0.631372549 0 0 0 0 0.823529412 0 0 0 0.25 0"/></filter><path id="b" d="M14.7 13.6a2.4 2.4 0 014 2.6 24.5 24.5 0 00-3.6 18.3 24.7 24.7 0 0037.9 16 2.4 2.4 0 112.6 4A29.4 29.4 0 0114.7 46a29.4 29.4 0 010-32.4zm8.7-8.7a29.5 29.5 0 0140.9 40.8 2.4 2.4 0 01-4-2.6A24.6 24.6 0 0064 24.8a24.7 24.7 0 00-37.8-16 2.4 2.4 0 01-2.7-4zm16.1 13.8a11 11 0 0111.3 11c0 6-5 10.8-11.2 10.9a11 11 0 01-11.3-11c0-6 5-10.9 11.2-10.9z"/></defs><g fill="none" fill-rule="evenodd" stroke-linecap="square" transform="translate(1 4)"><use fill="#000" filter="url(#a)" xlink:href="#b"/><use fill="url(#c)" xlink:href="#b"/><path fill="#3B3E3F" fill-rule="nonzero" d="M9.9 71.4c5.4 0 9.9 4.3 9.9 9.5s-4.5 9.5-10 9.5C4.5 90.4 0 86.2 0 81s4.4-9.5 9.9-9.5zm33.4 0c1.4 0 2.7.3 3.9.9a6 6 0 012.7 2.6 9 9 0 011 4.5v11h-4.5V80.1c0-1.5-.3-2.6-.8-3.4-.6-.8-1.4-1.2-2.5-1.2-1.2 0-2.1.4-2.9 1.1-.7.9-1 2-1 3.8v10h-4.6V80.1c0-1.4-.3-2.5-1-3.4a3.2 3.2 0 00-2.7-1.2c-1.2 0-2.1.4-2.7 1.3-.6.8-.9 2.2-.9 4.3v9.3h-4.5V72.1h4.1v1.5h.1c.5-.7 1-1.2 2-1.6a7.4 7.4 0 016 .2c.9.5 1.7 1.2 2.3 2.1.7-1 1.6-1.8 2.6-2.2 1-.4 2.1-.7 3.4-.7zm20.5 0c1 0 2.1.3 3.3.8a7 7 0 013 2.5 8.2 8.2 0 011.3 4.9v10.8h-4.7v-9.2c0-3.8-1.3-5.8-4-5.8-.6 0-1.1.2-1.8.5-.6.3-1.1.8-1.5 1.5-.5.8-.7 1.8-.7 3v10H54V72.1h4.3v1.5c.9-.7 1.7-1.3 2.6-1.6.8-.4 1.8-.6 2.9-.6zm14.5.8v18.2h-3.8V72.2h3.8zm-68.4 3c-3.3 0-6 2.6-6 5.7 0 3.2 2.7 5.7 6 5.7s6-2.5 6-5.7c0-3.1-2.8-5.7-6-5.7z"/></g></svg>